PathFileType  4	(X/Y/Z) C:\Users\antoi\Documents\MyRepositories\mobilecap\ResultsAnalysis
DataRate	CameraRate	NumFrames	NumMarkers	Units	OrigDataRate	OrigDataStartFrame	OrigNumFrames
100.0	100.0	4	51	mm	100.0	91	121
Frame#	Time	r_knee			r_shank_antsup			r_ankle			r_calc			r_5meta			r_toe			L_knee			L_shank_antsup			L_ankle			L_calc			L_5meta			L_toe			r_sh2			r_sh3			r_sh4			L_sh2			L_sh3			r_thigh1			r_thigh2			r_thigh3			r_thigh4			r_thigh5			L_thigh1			L_thigh2			L_thigh3			L_thigh4			r.ASIS			r.PSIS			L.ASIS			L.PSIS			C7			R_Shoulder			L_Shoulder			R_Sternum			L_Sternum			R_humerus			R_elbow_med			R_elbow_lat			R_forearm			R_wrist_radius			R_wrist_ulna			L_humerus			L_elbow_med			L_elbow_lat			L_forearm			L_wrist_radius			L_wrist_ulna			R_HJC			L_HJC			R_HJC_reg			L_HJC_reg			
		X1	Y1	Z1	X2	Y2	Z2	X3	Y3	Z3	X4	Y4	Z4	X5	Y5	Z5	X6	Y6	Z6	X7	Y7	Z7	X8	Y8	Z8	X9	Y9	Z9	X10	Y10	Z10	X11	Y11	Z11	X12	Y12	Z12	X13	Y13	Z13	X14	Y14	Z14	X15	Y15	Z15	X16	Y16	Z16	X17	Y17	Z17	X18	Y18	Z18	X19	Y19	Z19	X20	Y20	Z20	X21	Y21	Z21	X22	Y22	Z22	X23	Y23	Z23	X24	Y24	Z24	X25	Y25	Z25	X26	Y26	Z26	X27	Y27	Z27	X28	Y28	Z28	X29	Y29	Z29	X30	Y30	Z30	X31	Y31	Z31	X32	Y32	Z32	X33	Y33	Z33	X34	Y34	Z34	X35	Y35	Z35	X36	Y36	Z36	X37	Y37	Z37	X38	Y38	Z38	X39	Y39	Z39	X40	Y40	Z40	X41	Y41	Z41	X42	Y42	Z42	X43	Y43	Z43	X44	Y44	Z44	X45	Y45	Z45	X46	Y46	Z46	X47	Y47	Z47	X48	Y48	Z48	X49	Y49	Z49	X50	Y50	Z50	X51	Y51	Z51	

91	0.90000000	1218.99102	480.07667	-41.09147	1231.40582	411.92024	-15.24766	1279.01236	108.32651	-64.00249	1236.19221	62.77427	-122.06078	1382.63362	78.28429	-15.16214	1430.29409	116.98928	-54.98514	941.87579	461.67033	-308.76673	952.98250	393.85668	-307.28202	840.32984	103.35455	-275.90761	763.84184	78.59435	-234.69280	923.46913	42.34269	-301.60188	975.85230	59.22012	-245.41302	1251.64965	301.42236	-15.99221	1162.78396	398.18551	-44.83963	1178.55371	283.03897	-53.38803	868.46526	420.93601	-327.08733	843.33726	301.51125	-324.22758	1150.37979	787.26808	-50.57379	1207.27249	690.67766	-40.24656	1174.20201	651.89022	4.65058	1064.82066	747.37762	11.22860	1116.26999	642.13000	4.29578	1073.43202	729.01212	-346.22839	1047.31435	592.38711	-331.11200	959.35427	747.68909	-363.10862	939.37005	608.70692	-336.18063	1107.51677	907.66360	-59.66793	923.89227	908.49982	-125.51092	1103.14657	902.21050	-317.62152	919.07848	911.44034	-230.51683	987.51412	1385.30262	-171.80535	1039.22742	1324.14214	-17.87221	1044.13569	1335.56106	-333.09502	1098.50695	1296.67381	-153.99122	1098.09079	1297.92379	-198.37212	1020.61810	1080.84325	52.53943	971.99434	984.44764	-5.53944	984.09183	1000.21644	63.14217	1021.80096	885.06666	83.87921	1027.43596	764.85031	88.20206	983.84874	764.96255	98.40784	1101.40936	1221.07865	-385.53273	1101.28878	995.18780	-372.22517	1115.82231	1013.64866	-430.49734	1219.09179	970.24829	-432.92338	1314.35648	890.37328	-409.45233	1297.41068	861.74556	-429.02697	1048.31117	826.64300	-83.94400	1044.38400	827.61008	-284.19616	1056.00193	813.70379	-96.36485	1048.20650	818.46698	-266.41614	
92	0.91000000	1229.86632	475.80149	-41.21776	1246.41239	409.23221	-15.43870	1313.49354	108.57518	-62.54173	1273.70860	59.51034	-120.04673	1419.11306	86.10820	-13.95764	1464.02204	127.38564	-54.36094	948.19557	461.47150	-308.30239	958.21333	393.50736	-306.85290	841.35022	104.56063	-275.49093	764.63022	80.43175	-234.37186	923.68682	42.56354	-301.51349	976.40128	58.83147	-245.37178	1273.39706	300.15787	-15.71913	1178.75970	391.29100	-44.76968	1201.51280	277.13824	-53.17281	874.08880	421.85427	-326.43953	847.05537	302.84796	-323.71177	1163.40963	782.81323	-48.79553	1218.55853	684.99852	-38.93139	1184.65489	646.50386	5.32389	1076.67120	743.68430	11.58680	1126.47278	637.64690	4.13977	1084.06035	726.58534	-346.28809	1055.69286	590.49931	-331.01577	970.19489	747.22399	-362.56928	947.98548	608.64405	-335.59270	1122.08555	904.85252	-58.85667	938.11605	905.78605	-124.35962	1116.47847	899.56864	-317.00411	932.73621	909.34643	-229.32984	1000.90325	1382.66555	-170.87232	1053.09554	1321.78749	-16.93450	1057.27447	1332.87873	-332.15762	1112.10968	1294.19153	-153.28906	1111.54123	1295.39093	-197.64614	1033.32345	1078.44007	53.48462	984.51471	982.30291	-4.81704	996.27215	998.04775	63.92149	1032.88850	882.69057	85.23491	1037.10866	762.40275	89.86537	993.51538	762.98485	99.64256	1115.93989	1219.41938	-384.42722	1119.95210	993.54843	-371.39715	1134.75634	1012.33180	-429.52265	1239.15940	972.09480	-430.65752	1336.39737	895.25213	-405.91696	1320.87964	866.31044	-425.57700	1062.47358	823.87947	-83.23997	1057.80647	825.12294	-283.47453	1070.59399	810.27402	-95.86302	1061.87597	816.04373	-265.98442	
93	0.92000000	1240.91245	471.69723	-41.11699	1261.77863	406.85679	-15.59939	1345.60337	109.69952	-61.16700	1308.16773	57.24211	-117.63351	1453.03899	94.26391	-13.80410	1494.86599	137.50276	-55.29385	955.47391	461.03349	-307.92690	964.32874	392.86636	-306.46690	842.54282	105.89238	-275.17100	765.52862	82.48293	-234.14735	923.96058	42.78030	-301.41714	977.00039	58.38081	-245.34696	1294.67065	299.37122	-15.43057	1195.05193	385.09903	-44.08060	1223.80431	272.20781	-52.20682	880.73580	422.66183	-325.98126	851.51471	304.16360	-323.39771	1176.69374	778.43226	-46.92759	1230.20622	679.48107	-37.33620	1195.35884	641.27855	6.18695	1088.78654	740.11756	11.99902	1136.90335	633.29414	4.10969	1095.11471	724.16576	-346.29657	1064.76619	588.55125	-331.00903	981.47535	746.54216	-362.06851	957.33166	608.30198	-335.15535	1136.80781	901.93932	-58.01713	952.46055	903.01995	-123.16543	1129.90733	896.86273	-316.40442	946.52890	907.09101	-228.15384	1014.32032	1379.98632	-169.80732	1067.03706	1319.35771	-15.84412	1070.45993	1330.08144	-331.12987	1125.76715	1291.69134	-152.45789	1125.02631	1292.83041	-196.79287	1046.24599	1075.90727	54.50849	997.31921	980.00769	-4.03059	1008.74120	995.72566	64.76652	1044.24971	880.15064	86.60962	1047.04199	759.80742	91.47522	1003.50915	760.87956	100.89135	1130.47025	1217.57694	-383.24091	1138.35111	991.81571	-370.43200	1153.44286	1010.90823	-428.33661	1258.85795	973.68198	-428.29064	1357.87517	899.77467	-402.35970	1343.64964	870.55046	-422.13297	1076.78292	821.02810	-82.52809	1071.35436	822.54322	-282.74126	1085.23818	806.87801	-95.25143	1075.62219	813.47739	-265.47778	
94	0.93000000	1252.48639	467.98180	-40.82581	1277.67488	404.91502	-15.74948	1374.91084	111.26267	-59.95964	1338.98178	55.58222	-114.85125	1484.04272	102.02058	-14.82012	1522.58084	146.55253	-57.86993	963.80102	460.35942	-307.65232	971.39750	391.93701	-306.14431	843.95910	107.40049	-274.96572	766.57982	84.84698	-234.00903	924.31584	43.00706	-301.32002	977.64563	57.85154	-245.34332	1315.45995	298.99549	-15.14893	1211.72206	379.81257	-42.78244	1245.28476	268.27553	-50.47777	888.48056	423.37252	-325.70144	856.78364	305.48067	-323.28341	1190.39448	774.34501	-45.11017	1242.47251	674.40985	-35.61663	1206.65463	636.47341	7.17372	1101.43017	736.84320	12.48978	1147.95354	629.29996	4.27009	1106.63849	721.81708	-346.25823	1074.62459	586.57118	-331.11332	993.21026	745.66654	-361.60309	967.47872	607.68848	-334.83689	1151.65881	898.99448	-57.19644	966.90421	900.26942	-121.91671	1143.44639	894.15494	-315.84926	960.46860	904.69213	-226.95799	1027.78624	1377.33024	-168.59725	1081.06279	1316.88578	-14.58805	1083.71610	1327.23405	-330.00174	1139.49557	1289.22141	-151.48579	1138.56940	1290.29518	-195.80001	1059.39834	1073.28575	55.60871	1010.42388	977.58838	-3.17751	1021.51121	993.29348	65.67639	1055.88585	877.49448	87.98191	1057.27922	757.12181	93.02855	1013.84636	758.67628	102.14049	1145.02078	1215.60658	-381.94053	1156.43411	990.02403	-369.32991	1171.83231	1009.42927	-426.93859	1278.15852	975.02150	-425.82674	1378.78994	903.92977	-398.78410	1365.70545	874.43352	-418.70305	1091.25112	818.15689	-81.81178	1085.02741	819.92090	-281.99931	1099.88404	803.64110	-94.54313	1089.44828	810.81252	-264.90219	
